<?xml version="1.0" encoding="UTF-8"?>
<svg width="240" height="180" viewBox="0 0 240 180" fill="none" xmlns="http://www.w3.org/2000/svg">
  <!-- Background -->
  <rect width="240" height="180" rx="12" fill="#F5F8FF" />
  
  <!-- Calendar Background -->
  <rect x="20" y="30" width="200" height="130" rx="8" fill="white" stroke="#E0E4E8" stroke-width="2" />
  
  <!-- Calendar Header -->
  <rect x="20" y="30" width="200" height="30" rx="8" fill="#3F51B5" />
  <text x="120" y="50" text-anchor="middle" font-family="Arial" font-size="14" fill="white" font-weight="bold">Workout Plan</text>
  
  <!-- Calendar Grid -->
  <line x1="20" y1="60" x2="220" y2="60" stroke="#E0E4E8" stroke-width="2" />
  <line x1="48" y1="30" x2="48" y2="160" stroke="#E0E4E8" stroke-width="1" />
  <line x1="76" y1="30" x2="76" y2="160" stroke="#E0E4E8" stroke-width="1" />
  <line x1="104" y1="30" x2="104" y2="160" stroke="#E0E4E8" stroke-width="1" />
  <line x1="132" y1="30" x2="132" y2="160" stroke="#E0E4E8" stroke-width="1" />
  <line x1="160" y1="30" x2="160" y2="160" stroke="#E0E4E8" stroke-width="1" />
  <line x1="188" y1="30" x2="188" y2="160" stroke="#E0E4E8" stroke-width="1" />
  
  <line x1="20" y1="90" x2="220" y2="90" stroke="#E0E4E8" stroke-width="1" />
  <line x1="20" y1="120" x2="220" y2="120" stroke="#E0E4E8" stroke-width="1" />
  <line x1="20" y1="150" x2="220" y2="150" stroke="#E0E4E8" stroke-width="1" />
  
  <!-- Day Labels -->
  <text x="34" y="75" text-anchor="middle" font-family="Arial" font-size="10" fill="#64748B">Mon</text>
  <text x="62" y="75" text-anchor="middle" font-family="Arial" font-size="10" fill="#64748B">Tue</text>
  <text x="90" y="75" text-anchor="middle" font-family="Arial" font-size="10" fill="#64748B">Wed</text>
  <text x="118" y="75" text-anchor="middle" font-family="Arial" font-size="10" fill="#64748B">Thu</text>
  <text x="146" y="75" text-anchor="middle" font-family="Arial" font-size="10" fill="#64748B">Fri</text>
  <text x="174" y="75" text-anchor="middle" font-family="Arial" font-size="10" fill="#64748B">Sat</text>
  <text x="202" y="75" text-anchor="middle" font-family="Arial" font-size="10" fill="#64748B">Sun</text>
  
  <!-- Workout Events -->
  <rect x="28" y="95" width="15" height="20" rx="3" fill="#E91E63" opacity="0.7" />
  <rect x="84" y="95" width="15" height="20" rx="3" fill="#E91E63" opacity="0.7" />
  <rect x="140" y="95" width="15" height="20" rx="3" fill="#E91E63" opacity="0.7" />
  
  <rect x="56" y="125" width="15" height="20" rx="3" fill="#4CAF50" opacity="0.7" />
  <rect x="112" y="125" width="15" height="20" rx="3" fill="#4CAF50" opacity="0.7" />
  <rect x="168" y="125" width="15" height="20" rx="3" fill="#4CAF50" opacity="0.7" />
  
  <!-- Legend -->
  <rect x="30" y="160" width="10" height="10" rx="2" fill="#E91E63" opacity="0.7" />
  <text x="45" y="168" font-family="Arial" font-size="8" fill="#64748B">Strength</text>
  
  <rect x="90" y="160" width="10" height="10" rx="2" fill="#4CAF50" opacity="0.7" />
  <text x="105" y="168" font-family="Arial" font-size="8" fill="#64748B">Cardio</text>
  
  <rect x="150" y="160" width="10" height="10" rx="2" fill="#FFC107" opacity="0.7" />
  <text x="165" y="168" font-family="Arial" font-size="8" fill="#64748B">Rest</text>
  
  <!-- Dumbbell Icon -->
  <g transform="translate(200, 155) scale(0.4)">
    <rect x="-10" y="-5" width="40" height="10" rx="5" fill="#64748B"/>
    <circle cx="-15" cy="0" r="10" fill="#64748B"/>
    <circle cx="35" cy="0" r="10" fill="#64748B"/>
  </g>
</svg>